<svg id="Layer_1" viewBox="0 0 24 24" xmlns="http://www.w3.org/2000/svg" data-name="Layer 1"><path d="m3 5.5c0-.828.672-1.5 1.5-1.5s1.5.672 1.5 1.5-.672 1.5-1.5 1.5-1.5-.672-1.5-1.5zm5.5 1.5c.828 0 1.5-.672 1.5-1.5s-.672-1.5-1.5-1.5-1.5.672-1.5 1.5.672 1.5 1.5 1.5zm15.5-3v19h-24v-19c0-1.654 1.346-3 3-3h18c1.654 0 3 1.346 3 3zm-22 0v4h20v-4c0-.552-.448-1-1-1h-18c-.552 0-1 .448-1 1zm20 17v-11h-20v11zm-11.287-8.299-1.426-1.402-2.705 2.749c-.774.774-.775 2.036-.018 2.795l2.711 2.847 1.449-1.379-2.723-2.854 2.711-2.755zm3.988-1.414-1.402 1.426 2.792 2.738-2.804 2.847 1.426 1.404 2.798-2.842c.376-.376.583-.876.583-1.408s-.208-1.03-.589-1.41z"/></svg>