<svg id="Layer_1" viewBox="0 0 24 24" xmlns="http://www.w3.org/2000/svg" data-name="Layer 1"><path d="m22.784 11.575c-1.119-1.149-4.362-4.144-10.296-7.116-2.688-1.346-5.283-2.456-7.714-3.299-1.042-.361-2.168-.101-2.946.676-.766.764-1.022 1.873-.67 2.895.531 1.54 1.675 4.489 3.476 7.27-1.8 2.778-2.945 5.729-3.476 7.269-.352 1.021-.096 2.131.67 2.895.78.782 1.921 1.033 2.946.676 2.432-.843 5.027-1.953 7.714-3.299 5.935-2.973 9.178-5.967 10.296-7.116.238-.19.221-.621 0-.849zm-10.745 7.07c-2.648 1.327-5.203 2.42-7.593 3.248-.676.235-1.407.066-1.912-.438-.5-.499-.661-1.195-.431-1.861.418-1.213 1.577-4.284 3.404-7.095h15.76c-1.515 1.395-4.479 3.768-9.227 6.146zm-6.532-7.146c-1.828-2.809-2.987-5.882-3.405-7.096-.23-.666-.068-1.362.431-1.861.506-.507 1.248-.67 1.912-.438 2.39.828 4.945 1.921 7.593 3.248 4.751 2.379 7.715 4.753 9.229 6.146h-15.759z"/></svg>