<?xml version="1.0" encoding="UTF-8"?>
<svg id="Layer_1" xmlns="http://www.w3.org/2000/svg" version="1.1" xmlns:xlink="http://www.w3.org/1999/xlink" viewBox="0 0 323.4 330">
  <!-- Generator: Adobe Illustrator 29.7.1, SVG Export Plug-In . SVG Version: 2.1.1 Build 8)  -->
  <defs>
    <style>
      .st0 {
        fill: #1f9cf0;
      }

      .st1 {
        fill: #0065a9;
      }

      .st2 {
        fill: #007acc;
      }

      .st3 {
        fill: url(#linear-gradient);
        fill-rule: evenodd;
      }
    </style>
    <linearGradient id="linear-gradient" x1="71.4" y1="290.3" x2="72.4" y2="290.3" gradientTransform="translate(-77765.3 -19142.6) rotate(90) scale(268.4 -268.4)" gradientUnits="userSpaceOnUse">
      <stop offset="0" stop-color="#fff" stop-opacity=".2"/>
      <stop offset="1" stop-color="#fff" stop-opacity="0"/>
    </linearGradient>
  </defs>
  <g>
    <path class="st1" d="M287.1,59.2l-55.6-26.8c-6.4-3.1-14.1-1.8-19.2,3.3L30.4,201.7c-4.9,4.5-4.9,12.2,0,16.6l14.9,13.5c4,3.6,10,3.9,14.4.6l219.2-166.3c7.4-5.6,17.9-.3,17.9,8.9v-.6c0-6.5-3.7-12.4-9.5-15.2h0Z"/>
    <path class="st2" d="M287.1,270.8l-55.6,26.8c-6.4,3.1-14.1,1.8-19.2-3.3L30.4,128.3c-4.9-4.5-4.9-12.2,0-16.6l14.9-13.5c4-3.6,10-3.9,14.4-.6l219.2,166.3c7.4,5.6,17.9.3,17.9-8.9v.6c0,6.5-3.7,12.4-9.5,15.2h0Z"/>
    <path class="st0" d="M231.6,297.6c-6.4,3.1-14.1,1.8-19.2-3.3,6.2,6.2,16.9,1.8,16.9-7V42.7c0-8.8-10.6-13.2-16.9-7,5.1-5.1,12.7-6.4,19.2-3.3l55.6,26.7c5.8,2.8,9.6,8.7,9.6,15.2v181.3c0,6.5-3.7,12.4-9.6,15.2l-55.6,26.7Z"/>
  </g>
  <path class="st3" d="M218,298.1c4.2,1.7,9.1,1.5,13.4-.5l55.6-26.7c5.8-2.8,9.6-8.7,9.6-15.2V74.4c0-6.5-3.7-12.4-9.5-15.2l-55.6-26.7c-5.6-2.7-12.2-2-17.2,1.5-.7.5-1.4,1.1-2,1.7l-106.4,97-46.3-35.2c-4.3-3.3-10.3-3-14.3.6l-14.9,13.5c-4.9,4.5-4.9,12.2,0,16.6l40.2,36.7-40.2,36.7c-4.9,4.5-4.9,12.2,0,16.6l14.9,13.5c4,3.6,10,3.9,14.3.6l46.3-35.2,106.4,97c1.7,1.7,3.7,3,5.8,3.8h0ZM229.1,103.7l-80.7,61.3,80.7,61.3v-122.5Z"/>
</svg>